<svg width="40" height="40" viewBox="0 0 40 40" fill="none" xmlns="http://www.w3.org/2000/svg">
<g filter="url(#filter0_i_29_15458)">
<g clip-path="url(#clip0_29_15458)">
<rect width="40" height="40" rx="8" fill="url(#paint0_linear_29_15458)"/>
<path fill-rule="evenodd" clip-rule="evenodd" d="M9.8 30.2V40H10.2V30.2H19.8V40H20.2V30.2H29.8V40H30.2V30.2H40V29.8H30.2V20.2H40V19.8H30.2V10.2H40V9.8H30.2V0H29.8V9.8H20.2V0H19.8V9.8H10.2V0H9.8V9.8H0V10.2H9.8V19.8H0V20.2H9.8V29.8H0V30.2H9.8ZM10.2 29.8H19.8V20.2H10.2V29.8ZM20.2 29.8H29.8V20.2H20.2V29.8ZM29.8 10.2V19.8H20.2V10.2H29.8ZM10.2 19.8H19.8V10.2H10.2V19.8Z" fill="url(#paint1_linear_29_15458)"/>
<path d="M31 15.8292V31C31 31.5523 30.5523 32 30 32H17C16.4477 32 16 31.5523 16 31V9.58923C16 8.85288 16.7689 8.36907 17.4327 8.68771L30.4327 14.9277C30.7794 15.0941 31 15.4446 31 15.8292Z" fill="url(#paint2_linear_29_15458)"/>
<path d="M9 16.5707V31C9 31.5523 9.44772 32 10 32H21C21.5523 32 22 31.5523 22 31V21.7081C22 21.3197 21.7751 20.9664 21.4232 20.802L10.4232 15.6647C9.76015 15.355 9 15.839 9 16.5707Z" fill="url(#paint3_linear_29_15458)"/>
<circle cx="34.5" cy="12.5" r="0.5" fill="white"/>
<circle cx="24.5" cy="7.5" r="0.5" fill="white"/>
<circle cx="11" cy="11" r="1" fill="url(#paint4_linear_29_15458)"/>
</g>
</g>
<defs>
<filter id="filter0_i_29_15458" x="0" y="0" width="40" height="42" filterUnits="userSpaceOnUse" color-interpolation-filters="sRGB">
<feFlood flood-opacity="0" result="BackgroundImageFix"/>
<feBlend mode="normal" in="SourceGraphic" in2="BackgroundImageFix" result="shape"/>
<feColorMatrix in="SourceAlpha" type="matrix" values="0 0 0 0 0 0 0 0 0 0 0 0 0 0 0 0 0 0 127 0" result="hardAlpha"/>
<feOffset dy="2"/>
<feGaussianBlur stdDeviation="1"/>
<feComposite in2="hardAlpha" operator="arithmetic" k2="-1" k3="1"/>
<feColorMatrix type="matrix" values="0 0 0 0 1 0 0 0 0 1 0 0 0 0 1 0 0 0 0.25 0"/>
<feBlend mode="lighten" in2="shape" result="effect1_innerShadow_29_15458"/>
</filter>
<linearGradient id="paint0_linear_29_15458" x1="20" y1="0" x2="20" y2="40" gradientUnits="userSpaceOnUse">
<stop stop-color="#FFC75B"/>
<stop offset="1" stop-color="#F99312"/>
</linearGradient>
<linearGradient id="paint1_linear_29_15458" x1="20" y1="0" x2="20" y2="40" gradientUnits="userSpaceOnUse">
<stop stop-color="white" stop-opacity="0.3"/>
<stop offset="1" stop-color="white" stop-opacity="0"/>
</linearGradient>
<linearGradient id="paint2_linear_29_15458" x1="23.5" y1="8" x2="23.5" y2="32" gradientUnits="userSpaceOnUse">
<stop stop-color="white"/>
<stop offset="1" stop-color="white" stop-opacity="0.2"/>
</linearGradient>
<linearGradient id="paint3_linear_29_15458" x1="15.5" y1="15" x2="15.5" y2="32" gradientUnits="userSpaceOnUse">
<stop stop-color="white"/>
<stop offset="1" stop-color="white" stop-opacity="0.8"/>
</linearGradient>
<linearGradient id="paint4_linear_29_15458" x1="11" y1="10" x2="11" y2="12" gradientUnits="userSpaceOnUse">
<stop stop-color="white"/>
<stop offset="1" stop-color="white" stop-opacity="0.6"/>
</linearGradient>
<clipPath id="clip0_29_15458">
<rect width="40" height="40" rx="8" fill="white"/>
</clipPath>
</defs>
</svg>
