<svg width="14" height="14" viewBox="0 0 14 14" fill="none" xmlns="http://www.w3.org/2000/svg">
<path fill-rule="evenodd" clip-rule="evenodd" d="M6.32334 1.10965C6.3839 0.746476 6.13858 0.402969 5.77541 0.342406C5.41223 0.281843 5.06873 0.527159 5.00816 0.890334L4.43428 4.3317L1.66641 4.33333C1.29822 4.33355 0.999918 4.6322 1.00013 5.00039C1.00035 5.36858 1.299 5.66688 1.66719 5.66666L4.21192 5.66516L3.76718 8.3321L0.999866 8.33333C0.631676 8.33349 0.333332 8.6321 0.333496 9.00029C0.33366 9.36848 0.63227 9.66683 1.00046 9.66666L3.54482 9.66553L3.00705 12.8903C2.94649 13.2535 3.19181 13.597 3.55498 13.6576C3.91816 13.7181 4.26166 13.4728 4.32223 13.1097L4.89667 9.66493L8.21369 9.66345L7.67587 12.8904C7.61534 13.2536 7.86068 13.5971 8.22387 13.6576C8.58705 13.7181 8.93053 13.4728 8.99106 13.1096L9.56552 9.66285L12.3338 9.66161C12.702 9.66145 13.0003 9.36284 13.0002 8.99465C13 8.62646 12.7014 8.32811 12.3332 8.32828L9.78776 8.32941L10.2324 5.66162L13.0005 5.65999C13.3687 5.65977 13.667 5.36112 13.6668 4.99293C13.6666 4.62474 13.3679 4.32644 12.9997 4.32666L10.4546 4.32816L10.9911 1.10959C11.0516 0.746411 10.8062 0.402926 10.4431 0.342396C10.0799 0.281866 9.7364 0.527213 9.67587 0.890393L9.10278 4.32895L5.78616 4.3309L6.32334 1.10965ZM5.5638 5.66437L5.11903 8.33149L8.43593 8.33001L8.88053 5.66242L5.5638 5.66437Z" fill="#9B9DAA"/>
</svg>
