<svg width="52" height="52" viewBox="0 0 52 52" fill="none" xmlns="http://www.w3.org/2000/svg">
<path d="M4.33331 13.5199L25.9133 4.33325L47.6666 13.5199V38.4799L26.0866 47.7532L4.33331 38.4799V13.5199Z" fill="#F99E2C" stroke="#0F111C"/>
<path fill-rule="evenodd" clip-rule="evenodd" d="M52 27.9131L52 41.2533L26 52L-5.81198e-06 41.2533L-3.18925e-06 10.7467L26 7.16057e-06L52 10.7467L52 27.9131ZM47.6667 23.92L47.6667 13.52L26 4.33334L4.33333 13.52L4.33333 23.92L20.4533 23.92L22.1867 18.5467L26.52 18.5467L21.4933 34.1467L17.16 34.1467L19.0667 28.2533L4.33333 28.2533L4.33333 38.48L26 47.6667L47.6667 38.48L47.6667 28.2533L31.5467 28.2533L29.64 34.1467L25.3067 34.1467L30.3333 18.5467L34.6667 18.5467L32.9333 23.92L47.6667 23.92Z" fill="#0F111C"/>
</svg>
