<svg width="100" height="100" viewBox="0 0 100 100" fill="none" xmlns="http://www.w3.org/2000/svg">
<path fill-rule="evenodd" clip-rule="evenodd" d="M0 20C0 8.9543 8.9543 0 20 0H80C91.0457 0 100 8.9543 100 20C100 31.0457 91.0457 40 80 40H20C8.9543 40 0 31.0457 0 20Z" fill="url(#paint0_linear_10_161)"/>
<path fill-rule="evenodd" clip-rule="evenodd" d="M100 80C100 68.9543 91.0457 60 80 60H20C8.95431 60 0 68.9543 0 80C0 91.0457 8.95431 100 20 100H80C91.0457 100 100 91.0457 100 80Z" fill="url(#paint1_linear_10_161)"/>
<path fill-rule="evenodd" clip-rule="evenodd" d="M94.1421 34.1421C101.953 26.3316 101.953 13.6684 94.1421 5.85786C90.2369 1.95266 85.1185 3.88065e-05 80.0002 0C80.0001 0 80.0001 0 80 0H53.0001C57.1422 0 61.0002 3.35786 61.0002 7.5C61.0002 9.49203 60.3208 11.3027 59.0701 12.6457L58.7254 12.9903C58.7219 12.9936 58.7185 12.9968 58.715 13H58.7157L56 15.7157L5.85786 65.8579C-1.95262 73.6684 -1.95262 86.3316 5.85786 94.1421C9.76311 98.0474 14.8816 100 20 100H47.0001C42.8579 100 39 96.6421 39 92.5C39 90.5069 39.6801 88.6953 40.9322 87.3521L41.2725 87.0117C41.2767 87.0078 41.2809 87.0039 41.2852 87H41.2843L94.1421 34.1421Z" fill="url(#paint2_linear_10_161)"/>
<defs>
<linearGradient id="paint0_linear_10_161" x1="1.86451e-07" y1="13" x2="44.5" y2="34.5" gradientUnits="userSpaceOnUse">
<stop stop-color="#0492F6"/>
<stop offset="1" stop-color="#0036CA"/>
</linearGradient>
<linearGradient id="paint1_linear_10_161" x1="95.5" y1="88.5" x2="55.5" y2="73.5" gradientUnits="userSpaceOnUse">
<stop stop-color="#0492F6"/>
<stop offset="1" stop-color="#0036CA"/>
</linearGradient>
<linearGradient id="paint2_linear_10_161" x1="50" y1="0" x2="50" y2="100" gradientUnits="userSpaceOnUse">
<stop stop-color="#2AB2FF"/>
<stop offset="1" stop-color="#103DF2"/>
</linearGradient>
</defs>
</svg>
