<svg width="27" height="22" viewBox="0 0 27 22" fill="none" xmlns="http://www.w3.org/2000/svg">
<path fill-rule="evenodd" clip-rule="evenodd" d="M0 7.22212C0 6.83536 0 6.64198 0.075269 6.49425C0.141478 6.36431 0.247123 6.25867 0.377065 6.19246C0.524789 6.11719 0.71817 6.11719 1.10493 6.11719H11.6361C12.7517 6.11719 13.3096 6.11719 13.5679 6.33783C13.792 6.52924 13.9109 6.81643 13.8878 7.11024C13.8612 7.4489 13.4667 7.84331 12.6778 8.63213L8.02252 13.2875C6.44471 14.8652 5.65583 15.6542 5.60256 16.3315C5.5563 16.9191 5.7942 17.4934 6.24245 17.8762C6.75904 18.3175 7.87471 18.3175 10.106 18.3175H14.5377C14.9146 18.3175 15.103 18.3175 15.22 18.3969C15.3223 18.4662 15.3924 18.5738 15.4145 18.6954C15.4399 18.8345 15.3638 19.0069 15.2115 19.3517L14.3327 21.342C14.2274 21.5803 14.1748 21.6995 14.0913 21.7869C14.0176 21.8642 13.9269 21.9233 13.8264 21.9596C13.7127 22.0006 13.5824 22.0006 13.3219 22.0006H1.10493C0.71817 22.0006 0.524789 22.0006 0.377065 21.9253C0.247123 21.8591 0.141478 21.7535 0.075269 21.6235C0 21.4758 0 21.2824 0 20.8957V7.22212Z" fill="#0C63E4"/>
<path fill-rule="evenodd" clip-rule="evenodd" d="M26.3084 15.6993C26.3084 16.086 26.3084 16.2794 26.2331 16.4271C26.1669 16.5571 26.0612 16.6627 25.9313 16.7289C25.7836 16.8042 25.5902 16.8042 25.2034 16.8042H14.9024C13.7868 16.8042 13.229 16.8042 12.9707 16.5835C12.7466 16.3921 12.6276 16.1049 12.6507 15.8111C12.6774 15.4725 13.0718 15.0781 13.8607 14.2892L18.516 9.63388C20.0938 8.05613 20.8827 7.26719 20.936 6.58987C20.9822 6.00225 20.7444 5.428 20.2961 5.04517C19.7795 4.60389 18.6638 4.60389 16.4326 4.60389H11.3641C10.9872 4.60389 10.7988 4.60389 10.6817 4.52451C10.5795 4.45515 10.5094 4.34757 10.4872 4.226C10.4619 4.08688 10.538 3.91449 10.6902 3.56972L11.9757 0.658609C12.0809 0.420253 12.1336 0.301076 12.217 0.21367C12.2908 0.136411 12.3815 0.0773193 12.482 0.0410419C12.5956 0 12.7259 0 12.9865 0H25.2034C25.5902 0 25.7836 0 25.9313 0.075269C26.0612 0.141478 26.1669 0.247123 26.2331 0.377065C26.3084 0.524789 26.3084 0.71817 26.3084 1.10493V15.6993Z" fill="#0C63E4"/>
</svg>
